<?xml version="1.0"?>
<svg xmlns="http://www.w3.org/2000/svg" id="Capa_1" enable-background="new 0 0 508.657 508.657" height="512px" viewBox="0 0 508.657 508.657" width="512px" class=""><g><g id="XMLID_42_"><path id="XMLID_1519_" d="m130.438 217.841h247.781v72.975h-247.781z" fill="#688c97" transform="matrix(.707 -.707 .707 .707 -105.346 254.329)" data-original="#688C97" class="" style="fill:#FFFFFF" data-old_color="#688c97"/><path id="XMLID_560_" d="m143.838 250.192h247.781v35.074h-247.781z" fill="#4a696f" transform="matrix(.707 -.707 .707 .707 -110.897 267.729)" data-original="#4A696F" class="" style="fill:#E3E9ED" data-old_color="#4a696f"/><path id="XMLID_335_" d="m50.845 326.023h84.687v178.89h-84.687z" fill="#91eb90" transform="matrix(.707 -.707 .707 .707 -266.486 187.582)" data-original="#91EB90" class="active-path" style="fill:#666666" data-old_color="#91eb90"/><path id="XMLID_1498_" d="m97.597 229.38h94.792v268.569h-94.792z" fill="#b9b6ec" transform="matrix(.707 -.707 .707 .707 -214.682 209.04)" data-original="#B9B6EC" class="" style="fill:#78C2AD" data-old_color="#b9b6ec"/><path id="XMLID_334_" d="m373.125 3.744h84.687v178.89h-84.687z" fill="#91eb90" transform="matrix(.707 -.707 .707 .707 55.794 321.075)" data-original="#91EB90" class="active-path" style="fill:#666666" data-old_color="#91eb90"/><path id="XMLID_332_" d="m316.268 10.708h94.792v268.569h-94.792z" fill="#b9b6ec" transform="matrix(.707 -.707 .707 .707 3.99 299.617)" data-original="#B9B6EC" class="" style="fill:#78C2AD" data-old_color="#b9b6ec"/><path id="XMLID_570_" d="m382.491.329-.328-.329-.329.329z" fill="#ff6c6c" data-original="#FF6C6C" class=""/><path id="XMLID_588_" d="m405.249 81.297h84.687v88.031h-84.687z" fill="#00cc71" transform="matrix(.707 -.707 .707 .707 42.487 353.198)" data-original="#00CC71" class="" style="fill:#666666" data-old_color="#00cc71"/><path id="XMLID_439_" d="m.258 381.905-.258.258.258.258z" fill="#ff6c6c" data-original="#FF6C6C" class=""/><path id="XMLID_586_" d="m82.969 403.577h84.687v88.031h-84.687z" fill="#00cc71" transform="matrix(.707 -.707 .707 .707 -279.792 219.706)" data-original="#00CC71" class="" style="fill:#666666" data-old_color="#00cc71"/><g fill="#948fe1"><path id="XMLID_587_" d="m145.573 345.206h94.792v132.87h-94.792z" transform="matrix(.707 -.707 .707 .707 -234.555 257.017)" data-original="#948FE1" class="" style="fill:#78C2AD" data-old_color="#948FE1"/><path id="XMLID_589_" d="m364.245 126.534h94.792v132.87h-94.792z" transform="matrix(.707 -.707 .707 .707 -15.883 347.594)" data-original="#948FE1" class="" style="fill:#78C2AD" data-old_color="#948FE1"/></g></g></g> </svg>
